<svg width="68" height="77" viewBox="0 0 68 77" fill="none" xmlns="http://www.w3.org/2000/svg">
<g clip-path="url(#clip0_79_790)">
<path opacity="0.25" d="M66.9201 19.958L34.0001 38.998L1.08008 19.958C1.75869 18.7902 2.72196 17.8132 3.88008 17.118L30.0001 2.03804C32.4801 0.638037 35.5201 0.638037 38.0001 2.03804L64.1201 17.118C65.2801 17.81 66.2441 18.79 66.9201 19.958Z" fill="#FF8C00"/>
<path opacity="0.5" d="M34.001 39.0007V77.0007C32.74 76.9975 31.4959 76.7104 30.361 76.1607L4.00098 60.9207C2.78603 60.2192 1.7769 59.2106 1.07482 57.996C0.372748 56.7815 0.00241553 55.4036 0.000976562 54.0007V24.0007C0.00757936 22.5836 0.379559 21.1921 1.08098 19.9607L34.001 39.0007Z" fill="#B76A0C"/>
<path d="M68 24.0007V54.0007C67.9986 55.4036 67.6282 56.7815 66.9262 57.996C66.2241 59.2106 65.2149 60.2192 64 60.9207L37.52 76.2007C36.42 76.7207 35.216 76.9927 34 77.0007V39.0007L66.92 19.9607C67.62 21.1927 67.992 22.5847 68 24.0007Z" fill="#F8BC72"/>
</g>
<defs>
<clipPath id="clip0_79_790">
<rect width="68" height="77.0007" fill="white"/>
</clipPath>
</defs>
</svg>
