<svg width="68" height="90" viewBox="0 0 68 90" fill="none" xmlns="http://www.w3.org/2000/svg">
<path d="M34 46.75C30.4583 46.75 27.4479 45.5104 24.9688 43.0312C22.4896 40.5521 21.25 37.5417 21.25 34C21.25 30.4583 22.4896 27.4479 24.9688 24.9688C27.4479 22.4896 30.4583 21.25 34 21.25C37.5417 21.25 40.5521 22.4896 43.0312 24.9688C45.5104 27.4479 46.75 30.4583 46.75 34C46.75 37.5417 45.5104 40.5521 43.0312 43.0312C40.5521 45.5104 37.5417 46.75 34 46.75ZM8.5 89.25V56.4187C5.80833 53.4437 3.71875 50.0437 2.23125 46.2188C0.74375 42.3938 0 38.3208 0 34C0 24.5083 3.29375 16.4687 9.88125 9.88125C16.4687 3.29375 24.5083 0 34 0C43.4917 0 51.5312 3.29375 58.1187 9.88125C64.7062 16.4687 68 24.5083 68 34C68 38.3208 67.2563 42.3938 65.7688 46.2188C64.2813 50.0437 62.1917 53.4437 59.5 56.4187V89.25L34 80.75L8.5 89.25ZM34 59.5C41.0833 59.5 47.1042 57.0208 52.0625 52.0625C57.0208 47.1042 59.5 41.0833 59.5 34C59.5 26.9167 57.0208 20.8958 52.0625 15.9375C47.1042 10.9792 41.0833 8.5 34 8.5C26.9167 8.5 20.8958 10.9792 15.9375 15.9375C10.9792 20.8958 8.5 26.9167 8.5 34C8.5 41.0833 10.9792 47.1042 15.9375 52.0625C20.8958 57.0208 26.9167 59.5 34 59.5Z" fill="#F8BC72"/>
</svg>
