<svg width="71" height="38" viewBox="0 0 71 38" fill="none" xmlns="http://www.w3.org/2000/svg">
<path d="M13.4937 20.5226C16.4772 15.4826 21.0342 11.5626 26.4636 9.36596C31.8929 7.16932 37.8937 6.81774 43.5424 8.36533C49.1911 9.91292 54.1748 13.2739 57.7264 17.9311C61.278 22.5882 63.2007 28.2835 63.1988 34.1404C63.1988 35.0851 63.574 35.9911 64.2421 36.6591C64.9101 37.3272 65.8161 37.7024 66.7608 37.7024C67.7055 37.7024 68.6116 37.3272 69.2796 36.6591C69.9476 35.9911 70.3229 35.0851 70.3229 34.1404C70.3234 26.9761 68.05 19.9966 63.8303 14.2068C59.6106 8.41714 53.6622 4.11606 46.8419 1.92301C40.0215 -0.27004 32.6811 -0.241883 25.8778 2.00342C19.0745 4.24873 13.1593 8.59532 8.98413 14.4172L7.0713 3.57074C6.90739 2.64019 6.38053 1.81287 5.60664 1.27077C4.83274 0.728677 3.87519 0.516214 2.94464 0.680122C2.0141 0.844031 1.18677 1.37088 0.644679 2.14478C0.102583 2.91868 -0.10988 3.87623 0.0540289 4.80677L3.7657 25.855C3.93087 26.7852 4.45877 27.6116 5.23327 28.1525C5.73799 28.491 6.31451 28.7074 6.91727 28.7847C7.52004 28.862 8.13251 28.798 8.70629 28.5978L28.9388 25.0322C29.8694 24.8683 30.6967 24.3414 31.2388 23.5675C31.7809 22.7936 31.9933 21.8361 31.8294 20.9055C31.6655 19.975 31.1387 19.1477 30.3648 18.6056C29.5909 18.0635 28.6333 17.851 27.7028 18.0149L13.4937 20.5226Z" fill="#F8BC72"/>
</svg>
