<svg width="20" height="20" viewBox="0 0 20 20" fill="none" xmlns="http://www.w3.org/2000/svg">
<g clip-path="url(#clip0_432_3340)">
<path d="M14.6084 12.1712C14.6084 13.0112 14.8474 13.3462 15.4724 13.3462C16.8654 13.3462 17.7524 11.5712 17.7524 8.61916C17.7524 4.10716 14.4644 1.94716 10.3594 1.94716C6.13644 1.94716 2.29544 4.77916 2.29544 10.1312C2.29544 15.2432 5.65544 18.0272 10.8154 18.0272C12.5674 18.0272 13.7434 17.8352 15.5424 17.2352L15.9284 18.8422C14.1524 19.4192 12.2544 19.5862 10.7914 19.5862C4.02344 19.5862 0.398438 15.8662 0.398438 10.1302C0.398438 4.34616 4.59944 0.410156 10.3834 0.410156C16.4074 0.410156 19.5984 4.01016 19.5984 8.42616C19.5984 12.1702 18.4234 15.0262 14.7274 15.0262C13.0464 15.0262 11.9434 14.3542 11.7994 12.8652C11.3674 14.5212 10.2154 15.0262 8.65444 15.0262C6.56644 15.0262 4.81444 13.4172 4.81444 10.1782C4.81444 6.91416 6.35144 4.89816 9.11144 4.89816C10.5754 4.89816 11.4874 5.47416 11.8934 6.38616L12.5904 5.11416H14.6064V12.1712H14.6084ZM11.6574 9.00316C11.6574 7.68416 10.6724 7.13116 9.85644 7.13116C8.96844 7.13116 7.98544 7.85016 7.98544 9.96316C7.98544 11.6432 8.72944 12.5792 9.85644 12.5792C10.6484 12.5792 11.6574 12.0752 11.6574 10.6832V9.00316Z" fill="#1082FF"/>
</g>
<defs>
<clipPath id="clip0_432_3340">
<rect width="20" height="20" fill="white"/>
</clipPath>
</defs>
</svg>
