<svg width="47" height="47" viewBox="0 0 47 47" fill="none" xmlns="http://www.w3.org/2000/svg">
<path d="M9.39394 26.9381C10.2622 26.4684 11.0628 25.8744 11.5055 24.9889C12.145 23.7591 11.9975 22.1431 11.2399 21.0043C10.7184 20.2184 10.0974 19.9097 9.27218 19.5039C6.6207 18.2089 3.91633 17.0184 1.22303 15.8145C-0.399642 20.6331 -0.407845 25.8493 1.19966 30.6731C1.6547 30.4599 2.11014 30.2488 2.56599 30.0397C4.33816 29.2231 6.12508 28.441 7.90709 27.6453C8.38917 27.4301 8.90324 27.2038 9.39394 26.9381Z" fill="#007AFF"/>
<path d="M28.6527 21.4468C29.4504 19.6857 30.2482 17.9229 31.0459 16.1586C31.8207 14.4491 32.3876 12.4039 33.9163 11.1864C35.2691 10.1103 37.2983 10.0894 38.6216 11.2233C39.8096 12.2428 40.3433 13.8391 40.9656 15.2227L43.0415 19.8099C44.1164 22.1822 45.1777 24.5631 46.2637 26.9318C46.4552 25.7216 46.5511 24.4983 46.5502 23.2731C46.5453 10.419 36.125 2.86617e-06 23.2722 2.86617e-06C19.1991 -0.00201879 15.1968 1.06548 11.6658 3.09572C8.13471 5.12596 5.19862 8.04777 3.15119 11.5689C6.16916 12.9524 9.20435 14.3052 12.2272 15.674L17.5154 18.0685C19.2249 18.842 21.2713 19.409 22.4888 20.9389C22.9301 21.499 23.2034 22.1727 23.2771 22.882C23.3054 23.1555 23.3054 23.4312 23.2771 23.7047C23.2035 24.4191 22.9159 25.0947 22.4519 25.6429C21.9508 26.1965 21.349 26.6497 20.6785 26.9785L20.6429 26.9945H20.6564C19.937 27.3708 19.1659 27.6672 18.4513 27.9906L13.8678 30.0678C10.2854 31.6801 6.6906 33.2788 3.14258 34.9637C5.25841 38.6043 8.32199 41.6029 12.0071 43.6403C15.6922 45.6776 19.8609 46.6774 24.0692 46.5332C28.2775 46.3889 32.3679 45.1061 35.9049 42.8212C39.4418 40.5363 42.2929 37.3349 44.1545 33.558C43.77 32.7439 43.3892 31.9273 43.012 31.1082C42.1954 29.3361 41.4133 27.5491 40.6176 25.7671C40.4011 25.2838 40.1761 24.7697 39.9092 24.2778C39.4406 23.4096 38.8454 22.609 37.9612 22.1674C36.7313 21.5279 35.1154 21.6755 33.9765 22.4331C33.1907 22.9545 32.882 23.5756 32.4762 24.4008C30.8024 27.8246 29.3069 31.3357 27.7192 34.8001C27.4989 35.2874 27.1172 35.6837 26.6385 35.9221C26.1598 36.1605 25.6135 36.2263 25.0919 36.1085C24.5703 35.9907 24.1053 35.6964 23.7756 35.2754C23.4458 34.8544 23.2715 34.3325 23.2821 33.7978C23.282 33.4308 23.3621 33.0681 23.517 32.7353C25.2633 28.9954 26.9432 25.2112 28.6527 21.4468Z" fill="#007AFF"/>
</svg>
