<svg width="88" height="88" viewBox="0 0 88 88" fill="none" xmlns="http://www.w3.org/2000/svg">
<path d="M51.5527 36.4473L43.9994 33.0006L51.5527 29.554L54.9994 22.0007L58.446 29.554L65.9994 33.0006L58.446 36.4473L54.9994 44.0006L51.5527 36.4473ZM14.666 51.334L18.1127 43.7806L25.666 40.334L18.1127 36.8873L14.666 29.334L11.2193 36.8873L3.66602 40.334L11.2193 43.7806L14.666 51.334ZM31.166 33.0006L35.1627 24.164L43.9994 20.1673L35.1627 16.1707L31.166 7.33398L27.1694 16.1707L18.3327 20.1673L27.1694 24.164L31.166 33.0006ZM16.4994 75.1673L38.4994 53.1306L53.166 67.7973L84.3327 32.744L79.1627 27.574L53.166 56.7973L38.4994 42.1306L10.9993 69.6673L16.4994 75.1673Z" fill="#F8BC72"/>
</svg>
